<?xml version="1.0" encoding="UTF-8" standalone="no"?>
<svg id="Warstwa_1" data-name="Warstwa 1" xmlns="http://www.w3.org/2000/svg" viewBox="0 0 696.47 176"><defs><style>.cls-1{fill:#732e4e;}.cls-2{fill:#284269;}</style></defs><path class="cls-1" d="M30.73,78.18c0,9.47,0,9.47,9.48,9.47s9.48,0,9.48-9V56.63c0-6.89,0-13.78,10.34-13.78h8.62C79,42.85,79,49.74,79,56.63v94.79c0,6.89,0,13.78-10.34,13.78H60c-10.34,0-10.34-6.89-10.34-13.78V125.57c0-11.38-.69-12.07-9.48-12.07H38.32c-5.52,0-7.59,0-7.59,8.79v29.13c0,6.89,0,13.78-10.34,13.78H11.78c-10.34,0-10.34-6.89-10.34-13.78V56.63c0-6.89,0-13.78,10.34-13.78h8.61c10.34,0,10.34,6.89,10.34,13.78Z"/><path class="cls-1" d="M129.14,42.85c25.68,0,32.91,18.44,32.91,38.77,0,12.41-.17,20.34-10,28.61-4.83,4.14-7.93,1.72-7.93,8.27,0,7.07,2.24,15.68,7.93,15.68a23,23,0,0,0,5.51-.86c5.52,0,6.38,4.65,6.38,12.58,0,3.79-.17,8.45-.17,13.62,0,3.44-1.38,6.54-10.34,6.54-15.86,0-24-11.71-27.23-24.47-4.14-16-9.31-18.78-10.34-18.78-1.38,0-1.38,2.76-1.38,4.14v24.47c0,6.89,0,13.78-10.34,13.78H92.09c-6.9,0-6.9-6.89-6.9-13.78V56.63c0-6.89,0-13.78,10.34-13.78ZM114.32,73.52c0,2.24.17,6.21.17,9.82,0,3.45-.17,6.55-.17,8.62,0,5.69,1,6.72,7.93,6.72,7.75,0,9.47-7.58,9.47-15.33S130,66.11,122.25,66.11C115.35,66.11,114.32,67.32,114.32,73.52Z"/><path class="cls-1" d="M198.07,133.67c.35,3.79,3.79,5.68,7.24,5.68,9.82,0,13.1-.34,16.72-.34,7.23,0,9.47,2.07,9.47,7.24v12.06c0,5.17-1.72,6.89-6.89,6.89H179.12c-10.34,0-10.34-10.34-10.34-13.78V56.63c0-6.89,0-13.78,10.34-13.78h44.46c4.31,0,8.1,1.72,8.1,5.17V62.67c0,4.13-3.45,4.3-7.76,4.3-6.72,0-12.06-.34-16.37-.34-9.48,0-9.48,3.45-9.48,9,0,11.2,0,14.13,8.62,14.13,10.68,0,12.41-.34,16.37-.34,6,0,6.38,6,6.38,7.92v11c0,5.17-3.62,5.52-7.93,5.52-8.79,0-14.3-.35-17.92-.35-5.52,0-5.52,2.42-5.52,8.1Z"/><path class="cls-1" d="M385.23,160c0,3.1-2.76,5.17-9,5.17h-9c-11,0-11.72-2.41-15.51-13.61C344,129,341.11,113.5,336.11,113.5c-1,0-1.38,1.55-1.38,3.79s.35,5.35.35,8.28v25.85c0,6.89,0,13.78-10.34,13.78h-8.62c-10.34,0-10.34-6.89-10.34-13.78V56.63c0-6.89,0-13.78,10.34-13.78h8.62c10.34,0,10.34,6.89,10.34,13.78,0,30.51,0,30.51.86,30.51,5.17,0,10-20.34,11.72-24.47,5.69-13.62,6.2-19.82,15-19.82h10c5.86,0,10.68,0,10.68,4.82,0,2.07-.86,5-2.93,9.14-5.51,11.37-20.68,38.6-20.68,39.63,0,.69.69,1.73,1.9,4.31C363.34,104.54,384.71,151.24,385.23,160Z"/><path class="cls-1" d="M474.84,156.59c0,7.92-5.34,8.61-15.16,8.61h-9.14c-10.68,0-5.34-25.85-12.23-25.85H424.52c-6.89,0-2.93,25.85-13.27,25.85h-8.1c-9,0-14.3-.69-14.3-8.61,0-10.34,4.14-19.48,17.58-100,1.38-8.61,4.82-13.78,11.72-13.78h26.54c6.89,0,10.34,5.17,12.06,13.78C468.47,127.29,474.84,146.25,474.84,156.59ZM424.7,110.75c0,2.75,1.2,2.75,6.72,2.75,5.34,0,6.72,0,6.72-2.58a17.16,17.16,0,0,0-.18-2.76c-2.06-16.89-2.75-37.74-6.54-37.74-3.62,0-4.83,20.68-6.55,37.74A15.17,15.17,0,0,0,424.7,110.75Z"/><path class="cls-2" d="M550.5,42c14.3,0,24,2.58,24,7.41V62.67c0,1.89-.69,5.16-6.55,5.16h-1.38c-2.76,0-9-1.89-14-1.89-4.14,0-7.41,1.38-7.41,6.89,0,5.35,1.55,8.1,8.27,13.62,20.51,16.89,24.64,29,24.64,42.91,0,7.93-.17,15.16-4.65,21.88-5.69,8.62-14.65,11.89-18.44,12.93a72.34,72.34,0,0,1-16.54,1.89c-12.76,0-25.16-2.41-25.16-9.3V143.49c0-2.07,1.72-4.14,6.37-4.14,4.48,0,8.28,2.59,18.1,2.59,4.82,0,11.37-3.79,11.37-9.14,0-4-.17-6.89-10.68-17.23-16-15.68-23.61-22.92-23.61-37C514.83,44.57,536.71,42,550.5,42Z"/><path class="cls-2" d="M662.35,160c0,3.1-2.76,5.17-9,5.17h-9c-11,0-11.71-2.41-15.5-13.61-7.76-22.58-10.69-38.09-15.69-38.09-1,0-1.38,1.55-1.38,3.79s.35,5.35.35,8.28v25.85c0,6.89,0,13.78-10.34,13.78h-8.62c-10.34,0-10.34-6.89-10.34-13.78V56.63c0-6.89,0-13.78,10.34-13.78h8.62c10.34,0,10.34,6.89,10.34,13.78,0,30.51,0,30.51.86,30.51,5.17,0,10-20.34,11.72-24.47,5.69-13.62,6.2-19.82,15-19.82h10c5.86,0,10.68,0,10.68,4.82,0,2.07-.86,5-2.93,9.14-5.51,11.37-20.68,38.6-20.68,39.63,0,.69.69,1.73,1.9,4.31C640.46,104.54,661.83,151.24,662.35,160Z"/><path class="cls-2" d="M696.47,151.42c0,6.89,0,13.78-10.34,13.78h-8.61c-10.35,0-10.35-6.89-10.35-13.78V56.63c0-6.89,0-13.78,10.35-13.78h8.61c10.34,0,10.34,6.89,10.34,13.78Z"/><path class="cls-2" d="M271,66.82a9.57,9.57,0,0,1,4.45-.88c5,0,11.2,1.89,14,1.89h1.38c5.86,0,6.55-3.27,6.55-5.16V49.4c0-4.83-9.65-7.41-24-7.41L271,42Z"/><path class="cls-1" d="M276.31,86.45c-6.72-5.52-8.27-8.27-8.27-13.62a7.91,7.91,0,0,1,1-4.15V42.1c-13.59.73-31.29,5.89-31.29,36.42,0,14.13,7.58,21.37,23.61,37.05C271.83,125.91,272,128.84,272,132.8c0,5.35-6.55,9.14-11.37,9.14-9.82,0-13.62-2.59-18.1-2.59-4.65,0-6.37,2.07-6.37,4.14v13.27c0,6.89,12.41,9.3,25.16,9.3a72.34,72.34,0,0,0,16.54-1.89c3.79-1,12.76-4.31,18.44-12.93,4.48-6.72,4.66-14,4.66-21.88C301,115.4,296.82,103.34,276.31,86.45Z"/><circle class="cls-2" cx="494" cy="153" r="15"/><rect class="cls-2" width="31" height="176" rx="15.5"/><rect class="cls-2" x="48" width="31" height="176" rx="15.5"/></svg>