<?xml version="1.0" encoding="UTF-8"?>
<!-- (c) Carrd Inc. All rights reserved. All logos and trademarks are property of their respective owners. -->
<svg xmlns="http://www.w3.org/2000/svg" version="1.1" xmlns:xlink="http://www.w3.org/1999/xlink" viewBox="0 0 40 40" display="none" width="0" height="0">
	<symbol id="arrow-right-alt-light" viewBox="0 0 40 40"><path d="M12.9,32.4L25.3,20L13,7.6c-0.2-0.2-0.2-0.5,0-0.7l1.6-1.6c0.2-0.2,0.5-0.2,0.7,0L29.8,20L15.1,34.6c-0.2,0.2-0.5,0.2-0.7,0 l-1.6-1.6C12.7,32.9,12.7,32.6,12.9,32.4z"/></symbol>
	<symbol id="home" viewBox="0 0 40 40"><path d="M33.3,22.3v11.2c0,0.4-0.1,0.8-0.4,1.1c-0.3,0.3-0.6,0.4-1.1,0.4h-9v-9h-6v9h-9c-0.4,0-0.8-0.1-1.1-0.4 c-0.3-0.3-0.4-0.6-0.4-1.1V22.3c0,0,0,0,0-0.1s0-0.1,0-0.1L19.9,11l13.5,11.1C33.3,22.1,33.3,22.2,33.3,22.3L33.3,22.3z M38.5,20.6 l-1.5,1.7c-0.1,0.1-0.3,0.2-0.5,0.3h-0.1c-0.2,0-0.4-0.1-0.5-0.2L19.9,9L3.7,22.5c-0.2,0.1-0.4,0.2-0.6,0.2c-0.2,0-0.4-0.1-0.5-0.3 l-1.5-1.7C1,20.5,1,20.3,1,20.1s0.1-0.4,0.3-0.5l16.8-14C18.6,5.2,19.2,5,19.9,5s1.3,0.2,1.8,0.6l5.7,4.8V5.8c0-0.2,0.1-0.4,0.2-0.5 S27.9,5,28.1,5h4.5c0.2,0,0.4,0.1,0.5,0.2c0.1,0.1,0.2,0.3,0.2,0.5v9.5l5.1,4.3c0.2,0.1,0.2,0.3,0.3,0.5 C38.7,20.3,38.7,20.5,38.5,20.6L38.5,20.6z"/></symbol>
	<symbol id="email" viewBox="0 0 40 40"><path d="M37.3,15.3v15.3c0,0.8-0.3,1.6-0.9,2.2c-0.6,0.6-1.4,0.9-2.2,0.9H5.8c-0.8,0-1.6-0.3-2.2-0.9s-0.9-1.4-0.9-2.2V15.3 c0.5,0.6,1.2,1.1,2,1.7c4.7,3.1,7.9,5.4,9.6,6.7c0.7,0.5,1.4,0.9,1.8,1.2c0.4,0.3,1,0.6,1.9,0.9c0.7,0.3,1.5,0.5,2.1,0.5l0,0 c0.6,0,1.4-0.2,2.1-0.5c0.7-0.3,1.4-0.6,1.9-0.9c0.4-0.3,1-0.7,1.8-1.2c2.2-1.6,5.4-3.8,9.6-6.7C36.1,16.5,36.7,15.9,37.3,15.3 L37.3,15.3z M37.3,9.6c0,1-0.3,2-0.9,2.9c-0.6,0.9-1.5,1.8-2.4,2.4c-4.9,3.3-7.9,5.4-9,6.2c-0.1,0.1-0.4,0.3-0.8,0.6 c-0.4,0.3-0.7,0.5-1,0.7c-0.3,0.2-0.6,0.4-1,0.6c-0.4,0.2-0.7,0.4-1.1,0.5c-0.4,0.1-0.6,0.2-0.9,0.2l0,0c-0.3,0-0.6-0.1-0.9-0.2 c-0.3-0.1-0.7-0.3-1.1-0.5c-0.4-0.2-0.7-0.4-1-0.6c-0.3-0.2-0.6-0.4-1-0.7c-0.4-0.3-0.7-0.5-0.8-0.6c-1.1-0.8-2.8-2-5.1-3.5 c-2.3-1.6-3.3-2.4-3.7-2.7c-0.8-0.5-1.6-1.2-2.3-2.2s-1-1.9-1-2.6c0-1,0.3-1.9,0.8-2.5c0.5-0.6,1.2-1,2.3-1h28.4 c0.8,0,1.6,0.3,2.2,0.9C37.1,8.1,37.3,8.8,37.3,9.6L37.3,9.6z"/></symbol>
	<symbol id="phone" viewBox="0 0 40 40"><path d="M34.8,28.8c0,0.4-0.1,0.8-0.2,1.5c-0.1,0.6-0.2,1.1-0.5,1.4c-0.4,0.7-1.2,1.4-2.6,2.2C30.2,34.7,29,35,27.7,35 c-0.4,0-0.7,0-1.1-0.1c-0.4,0-0.7-0.1-1.2-0.2c-0.5-0.1-0.8-0.2-0.9-0.4c-0.2-0.1-0.6-0.2-1.2-0.5c-0.6-0.2-0.9-0.4-1.1-0.4 c-1.4-0.5-2.6-1.1-3.6-1.8c-1.8-1.1-3.6-2.6-5.5-4.4c-1.9-1.9-3.4-3.7-4.4-5.5C8,20.8,7.4,19.5,7,18.2c0-0.1-0.1-0.5-0.4-1.1 C6.4,16.5,6,16.2,6,16c-0.1-0.2-0.2-0.6-0.4-0.9c-0.1-0.5-0.2-0.8-0.2-1.2s-0.1-0.7-0.1-1.1c0-1.3,0.4-2.6,1.1-3.9 c0.8-1.5,1.5-2.5,2.2-2.7C9,6.1,9.4,5.9,10,5.8c0.6-0.1,1.1-0.2,1.5-0.2c0.2,0,0.4,0,0.5,0.1c0.2,0.1,0.6,0.6,1.1,1.5 c0.1,0.2,0.4,0.6,0.6,1.2c0.2,0.5,0.5,0.9,0.7,1.3c0.2,0.4,0.5,0.8,0.7,1.2c0,0,0.1,0.2,0.4,0.5c0.2,0.2,0.4,0.6,0.5,0.7 c0.1,0.2,0.1,0.4,0.1,0.6c0,0.2-0.2,0.6-0.6,1.1c-0.4,0.5-0.8,0.8-1.3,1.2s-0.9,0.7-1.3,1.1c-0.4,0.4-0.6,0.7-0.6,0.9 c0,0.1,0,0.2,0.1,0.5c0.1,0.2,0.1,0.4,0.2,0.5c0,0.1,0.1,0.2,0.4,0.5c0.1,0.2,0.2,0.4,0.2,0.4c1.1,1.9,2.2,3.5,3.6,4.9 c1.4,1.4,3,2.6,4.9,3.6c0,0,0.1,0.1,0.4,0.2c0.2,0.1,0.4,0.2,0.5,0.4c0.1,0,0.2,0.1,0.5,0.2c0.2,0.1,0.4,0.1,0.5,0.1 c0.2,0,0.6-0.2,0.9-0.6c0.4-0.4,0.7-0.8,1.1-1.3c0.4-0.5,0.7-0.9,1.2-1.3c0.5-0.4,0.8-0.6,1.1-0.6c0.2,0,0.4,0,0.6,0.1 c0.2,0.1,0.5,0.2,0.7,0.5c0.4,0.2,0.5,0.4,0.5,0.4c0.4,0.2,0.7,0.5,1.2,0.7c0.4,0.2,0.8,0.5,1.3,0.7c0.5,0.2,0.8,0.5,1.2,0.6 c0.9,0.5,1.5,0.8,1.6,1.1C34.8,28.5,34.8,28.6,34.8,28.8L34.8,28.8z"/></symbol>
	<symbol id="calendar" viewBox="0 0 40 40"><path d="M32.4,32.6h-5.1v-5.1h5.1V32.6z M26.2,32.6h-5.7v-5.1h5.7V32.6z M32.4,26.3h-5.1v-5.7h5.1V26.3z M26.2,26.3h-5.7v-5.7h5.7 V26.3z M32.4,19.6h-5.1v-5.1h5.1V19.6z M19.4,32.6h-5.7v-5.1h5.7V32.6z M26.2,19.6h-5.7v-5.1h5.7V19.6z M12.6,32.6H7.6v-5.1h5.1 V32.6z M19.4,26.3h-5.7v-5.7h5.7V26.3z M25.7,11.1V6c0-0.2,0.1-0.3,0.2-0.4c0.1-0.1,0.2-0.2,0.4-0.2h1.1c0.2,0,0.3,0.1,0.4,0.2 c0.1,0.1,0.2,0.2,0.2,0.4v5.1c0,0.2-0.1,0.3-0.2,0.4c-0.1,0.1-0.2,0.2-0.4,0.2h-1.1c-0.2,0-0.3-0.1-0.4-0.2 C25.7,11.4,25.7,11.2,25.7,11.1z M12.6,26.3H7.6v-5.7h5.1V26.3z M19.4,19.6h-5.7v-5.1h5.7V19.6z M12.6,19.6H7.6v-5.1h5.1V19.6z M12.1,11.1V6c0-0.2,0.1-0.3,0.2-0.4c0.1-0.1,0.2-0.2,0.4-0.2h1.1c0.2,0,0.3,0.1,0.4,0.2c0.1,0.1,0.2,0.2,0.2,0.4v5.1 c0,0.2-0.1,0.3-0.2,0.4c-0.1,0.1-0.2,0.2-0.4,0.2h-1.1c-0.2,0-0.3-0.1-0.4-0.2C12.1,11.4,12.1,11.2,12.1,11.1z M5.3,9.9v22.6 c0,0.6,0.2,1.1,0.7,1.6c0.4,0.4,1,0.7,1.6,0.7h24.9c0.6,0,1.1-0.2,1.6-0.7c0.4-0.4,0.7-1,0.7-1.6V9.9c0-0.6-0.2-1.1-0.7-1.6 c-0.4-0.4-1-0.7-1.6-0.7h-2.3V6c0-0.8-0.3-1.4-0.8-2s-1.2-0.8-2-0.8h-1.1c-0.8,0-1.4,0.3-2,0.8c-0.6,0.6-0.8,1.2-0.8,2v1.7h-6.8V6 c0-0.8-0.3-1.4-0.8-2s-1.2-0.8-2-0.8h-1.1c-0.8,0-1.4,0.3-2,0.8c-0.6,0.6-0.8,1.2-0.8,2v1.7H7.6C6.9,7.7,6.4,7.9,6,8.3 C5.5,8.8,5.3,9.3,5.3,9.9z" /></symbol>
	<symbol id="information" viewBox="0 0 40 40"><path d="M28,31.4c-0.3-0.3-0.7-0.5-1.2-0.5h-1.6V16.1c0-0.4-0.2-0.8-0.5-1.2c-0.3-0.3-0.7-0.5-1.2-0.5h-9.8c-0.4,0-0.8,0.2-1.2,0.5 s-0.5,0.7-0.5,1.2v3.3c0,0.4,0.2,0.8,0.5,1.2c0.3,0.3,0.7,0.5,1.2,0.5h1.6v9.8h-1.6c-0.4,0-0.8,0.2-1.2,0.5s-0.5,0.7-0.5,1.2v3.3 c0,0.4,0.2,0.8,0.5,1.2s0.7,0.5,1.2,0.5h13.1c0.4,0,0.8-0.2,1.2-0.5s0.5-0.7,0.5-1.2v-3.3C28.5,32.1,28.3,31.7,28,31.4z M24.7,1.9 c-0.3-0.3-0.7-0.5-1.2-0.5H17c-0.4,0-0.8,0.2-1.2,0.5c-0.3,0.3-0.5,0.7-0.5,1.2V8c0,0.4,0.2,0.8,0.5,1.2c0.3,0.3,0.7,0.5,1.2,0.5 h6.5c0.4,0,0.8-0.2,1.2-0.5c0.3-0.3,0.5-0.7,0.5-1.2V3.1C25.2,2.6,25.1,2.2,24.7,1.9z"/></symbol>
	<symbol id="facebook" viewBox="0 0 40 40"><path d="M38,20.1c0-9.9-8.1-18-18-18S2,10.1,2,20.1s5.8,15.5,13.7,17.5v-12h-3.7v-5.5h3.7v-2.4c0-6.1,2.8-9,8.8-9s3.1.2,3.9.4v5c-.4,0-1.2,0-2.1,0-3,0-4.1,1.1-4.1,4v1.9h5.9l-1,5.5h-4.9v12.4c8.9-1.1,15.8-8.7,15.8-17.9Z"/></symbol>
</svg>
